<svg width="145" height="43" viewBox="0 0 145 43" fill="none" xmlns="http://www.w3.org/2000/svg">
<g fill="white">
<path d="M22.9754 0.894295V27.52C22.9754 28.0133 22.5722 28.4143 22.0733 28.4143H18.1363C17.6374 28.4143 17.2341 28.0133 17.2341 27.52V17.9413C17.2341 17.448 16.8309 17.047 16.332 17.047H6.64602C6.14711 17.047 5.74385 17.448 5.74385 17.9413V27.52C5.74385 28.0133 5.3406 28.4143 4.84169 28.4143H0.902163C0.403259 28.4143 0 28.0133 0 27.52V0.894295C0 0.400982 0.403259 0 0.902163 0H4.83911C5.33801 0 5.74127 0.400982 5.74127 0.894295V10.473C5.74127 10.9663 6.14453 11.3673 6.64343 11.3673H16.3242C16.8231 11.3673 17.2264 10.9663 17.2264 10.473V0.894295C17.2264 0.400982 17.6297 0 18.1286 0H22.0655C22.5644 0 22.9677 0.400982 22.9677 0.894295H22.9754Z" />
<path d="M47.753 23.7052V27.6015C47.753 28.0949 47.3497 28.4958 46.8508 28.4958H27.117C26.6181 28.4958 26.2148 28.0949 26.2148 27.6015V0.975838C26.2148 0.482525 26.6181 0.081543 27.117 0.081543H46.8508C47.3497 0.081543 47.753 0.482525 47.753 0.975838V4.87222C47.753 5.36553 47.3497 5.76651 46.8508 5.76651H32.8609C32.362 5.76651 31.9587 6.16749 31.9587 6.66081V10.5572C31.9587 11.0505 32.362 11.4515 32.8609 11.4515H43.9789C44.4778 11.4515 44.8811 11.8525 44.8811 12.3458V16.2422C44.8811 16.7355 44.4778 17.1365 43.9789 17.1365H32.8609C32.362 17.1365 31.9587 17.5374 31.9587 18.0307V21.9271C31.9587 22.4204 32.362 22.8214 32.8609 22.8214H46.8508C47.3497 22.8214 47.753 23.2224 47.753 23.7157V23.7052Z" />
<path d="M73.0676 7.30736C73.0676 8.5789 73.0805 9.79767 73.109 10.961C73.1348 12.1244 73.0805 13.3564 72.9461 14.6543C72.8634 15.3587 72.6799 15.9522 72.3929 16.4402C72.106 16.9283 71.6614 17.3609 71.0591 17.7382C70.4568 18.1444 69.8545 18.3687 69.2548 18.4082C69.1152 18.4188 68.9704 18.4267 68.8282 18.4346C68.1639 18.4689 67.7684 19.1838 68.0915 19.7615L72.2016 27.09C72.5351 27.6862 72.1008 28.4169 71.4106 28.4169H66.9127C66.5845 28.4169 66.282 28.2402 66.1217 27.9579L61.0577 18.9332C60.8975 18.6483 60.595 18.4742 60.2667 18.4742H57.2294C56.7305 18.4742 56.3272 18.8752 56.3272 19.3685V27.5253C56.3272 28.0186 55.9239 28.4196 55.425 28.4196H51.4881C50.9892 28.4196 50.5859 28.0186 50.5859 27.5253V0.894295C50.5859 0.400982 50.9892 0 51.4881 0H68.4327C69.0893 0 69.6968 0.116074 70.2577 0.345583C70.8187 0.575092 71.3047 0.899571 71.7131 1.31902C72.1241 1.73847 72.4524 2.2265 72.698 2.78049C72.9435 3.33448 73.0676 3.93595 73.0676 4.58755V7.30736ZM66.2975 12.7866C66.7964 12.7866 67.1997 12.3856 67.1997 11.8923V6.57663C67.1997 6.08331 66.7964 5.68233 66.2975 5.68233H57.232C56.7331 5.68233 56.3298 6.08331 56.3298 6.57663V11.8923C56.3298 12.3856 56.7331 12.7866 57.232 12.7866H66.2975Z" />
<path d="M77.3663 0.793813C77.5007 0.369089 77.8911 0.081543 78.3279 0.081543H97.2113C97.7102 0.081543 98.1135 0.482525 98.1135 0.975838V5.42621C98.1135 5.64516 98.0333 5.85621 97.886 6.01976L84.1803 21.3283C83.6633 21.906 84.0769 22.8135 84.8576 22.8135H97.2113C97.7102 22.8135 98.1135 23.2145 98.1135 23.7078V27.6042C98.1135 28.0975 97.7102 28.4985 97.2113 28.4985H76.0428C75.5439 28.4985 75.1406 28.0975 75.1406 27.6042V23.1538C75.1406 22.9349 75.2208 22.7238 75.3681 22.5603L89.1099 7.25173C89.6269 6.674 89.2133 5.76387 88.4352 5.76387H76.795C76.2987 5.76387 75.9446 5.26792 76.0997 4.7878L77.3715 0.796451L77.3663 0.793813Z" />
<path d="M130.599 7.18355C130.599 8.45508 130.625 9.71343 130.682 10.9586C130.736 12.2037 130.695 13.4621 130.558 14.7336C130.504 15.438 130.325 16.0315 130.025 16.5196C129.723 17.0076 129.273 17.4534 128.671 17.8597C128.069 18.2396 127.466 18.448 126.867 18.4902C126.264 18.5297 125.649 18.5509 125.021 18.5509H115.175C114.676 18.5509 114.273 18.9518 114.273 19.4451V27.602C114.273 28.0953 113.869 28.4963 113.37 28.4963H109.433C108.935 28.4963 108.531 28.0953 108.531 27.602V0.97625C108.531 0.482937 108.935 0.081955 109.433 0.081955H126.091C127.376 0.081955 128.451 0.488213 129.312 1.30073C130.173 2.11324 130.604 3.16846 130.604 4.46637V7.18619L130.599 7.18355ZM123.953 12.8659C124.452 12.8659 124.855 12.4649 124.855 11.9716V6.65594C124.855 6.16263 124.452 5.76165 123.953 5.76165H115.175C114.676 5.76165 114.273 6.16263 114.273 6.65594V11.9716C114.273 12.4649 114.676 12.8659 115.175 12.8659H123.953Z" />
<path d="M145.001 0.934042V27.5597C145.001 28.0531 144.598 28.454 144.099 28.454H140.162C139.663 28.454 139.26 28.0531 139.26 27.5597V10.154C139.26 9.35729 138.288 8.95895 137.717 9.52085C137.368 9.86644 136.799 9.86907 136.445 9.52613L133.638 6.80367C133.278 6.45282 133.276 5.88036 133.638 5.5295L138.996 0.295637C139.164 0.129441 139.394 0.0371094 139.63 0.0371094H144.099C144.598 0.0371094 145.001 0.438091 145.001 0.931404V0.934042Z" />
<path d="M37.6097 38.3625C37.5296 38.3625 37.4572 38.3071 37.4417 38.2279C37.3951 37.9747 37.2866 37.7795 37.1185 37.6449C36.9221 37.4866 36.6248 37.4075 36.2293 37.4075C35.5003 37.4075 35.1384 37.6634 35.1384 38.1725C35.1384 38.3545 35.2134 38.5076 35.3659 38.6315C35.5184 38.7555 35.7588 38.8558 36.0923 38.9376C36.4878 39.0325 36.829 39.1196 37.1185 39.2014C37.4081 39.2831 37.6743 39.3781 37.9147 39.4836C38.0491 39.539 38.1784 39.6102 38.2999 39.6973C38.4214 39.7817 38.5222 39.8872 38.6049 40.0139C38.6876 40.1405 38.7548 40.2909 38.804 40.4676C38.8531 40.6444 38.8789 40.858 38.8789 41.1087C38.8789 41.4094 38.8169 41.6785 38.6928 41.9106C38.5687 42.1428 38.4033 42.3406 38.1939 42.5015C37.9845 42.6625 37.7364 42.7838 37.4546 42.8709C37.1702 42.9553 36.8704 42.9975 36.5576 42.9975C35.6632 42.9975 34.9911 42.8207 34.5413 42.4699C34.1355 42.1507 33.9028 41.6943 33.8408 41.1007C33.8304 40.9952 33.908 40.9029 34.014 40.9029H34.911C34.9937 40.9029 35.0686 40.9636 35.079 41.048C35.1152 41.3012 35.2392 41.507 35.4512 41.6626C35.702 41.8473 36.0147 41.9423 36.3896 41.9423C36.798 41.9423 37.1056 41.8658 37.315 41.7154C37.5244 41.565 37.6304 41.3593 37.6304 41.1007C37.6304 41.0005 37.6174 40.9082 37.5942 40.8211C37.5683 40.7367 37.5218 40.6602 37.4494 40.589C37.3796 40.5204 37.2814 40.4571 37.1573 40.4043C37.0332 40.3515 36.873 40.3014 36.6765 40.2566C36.2086 40.1563 35.8028 40.0534 35.459 39.9506C35.1178 39.8477 34.8334 39.7184 34.6111 39.5628C34.3888 39.4098 34.2259 39.2225 34.1199 39.0009C34.014 38.7819 33.9623 38.4996 33.9623 38.1593C33.9623 37.9008 34.0088 37.6581 34.1019 37.4312C34.1949 37.2044 34.3371 37.0065 34.5284 36.8403C34.7197 36.6741 34.9549 36.5422 35.2367 36.4446C35.5184 36.347 35.8493 36.2969 36.2319 36.2969C36.6145 36.2969 36.935 36.347 37.2323 36.4446C37.5296 36.5422 37.7829 36.682 37.9948 36.8614C38.2068 37.0408 38.3723 37.2571 38.4912 37.513C38.5816 37.7109 38.6411 37.9245 38.6695 38.1541C38.6825 38.2622 38.6049 38.3572 38.4989 38.3572H37.6149L37.6097 38.3625Z" />
<path d="M47.1249 42.607V39.8027C47.1249 39.597 46.838 39.5574 46.7863 39.7552L46.0134 42.6518C45.9927 42.7283 45.9255 42.7811 45.8479 42.7811H44.8346C44.757 42.7811 44.6872 42.7283 44.6692 42.6518L43.904 39.779C43.8523 39.5811 43.5654 39.6207 43.5654 39.8238V42.6043C43.5654 42.7019 43.4878 42.7811 43.3922 42.7811H42.5443C42.4486 42.7811 42.3711 42.7019 42.3711 42.6043V36.6846C42.3711 36.587 42.4486 36.5078 42.5443 36.5078H44.1237C44.2039 36.5078 44.2711 36.5632 44.2917 36.6424L45.2017 40.4147C45.2456 40.5941 45.4938 40.5941 45.5377 40.4147L46.4476 36.6424C46.4657 36.5632 46.5355 36.5078 46.6157 36.5078H48.1589C48.2545 36.5078 48.3321 36.587 48.3321 36.6846V42.6043C48.3321 42.7019 48.2545 42.7811 48.1589 42.7811H47.3007C47.205 42.7811 47.1275 42.7019 47.1275 42.6043L47.1249 42.607Z" />
<path d="M56.1989 42.6574L55.8861 41.6127C55.8628 41.5388 55.7956 41.4887 55.7207 41.4887H53.7044C53.6294 41.4887 53.5648 41.5362 53.5415 41.6074L53.1874 42.6626C53.1641 42.7339 53.0969 42.7814 53.0245 42.7814H52.0319C51.913 42.7814 51.8303 42.66 51.869 42.5466L53.9396 36.6268C53.9629 36.5556 54.0301 36.5107 54.1025 36.5107H55.3484C55.4208 36.5107 55.488 36.5582 55.5113 36.6295L57.556 42.5492C57.5948 42.6626 57.5121 42.784 57.3932 42.784H56.3669C56.292 42.784 56.2247 42.7339 56.2015 42.66L56.1989 42.6574ZM54.7099 37.9168H54.6996L53.9861 40.1803C53.95 40.2937 54.0327 40.4098 54.1516 40.4098H55.2425C55.3588 40.4098 55.4415 40.2937 55.4079 40.1803L54.7099 37.9168Z" />
<path d="M64.8526 42.7838C64.7569 42.7838 64.6794 42.7047 64.6794 42.6071V41.1693C64.6794 40.8686 64.6122 40.6523 64.4752 40.523C64.3382 40.3938 64.0874 40.3305 63.7152 40.3305H62.5183C62.4227 40.3305 62.3451 40.4096 62.3451 40.5072V42.6097C62.3451 42.7073 62.2676 42.7865 62.1719 42.7865H61.2672C61.1715 42.7865 61.094 42.7073 61.094 42.6097V36.69C61.094 36.5924 61.1715 36.5132 61.2672 36.5132H64.2141C64.4984 36.5132 64.7543 36.5581 64.987 36.6504C65.2196 36.7427 65.4161 36.8667 65.5841 37.0276C65.7496 37.1886 65.8788 37.3811 65.9693 37.6027C66.0598 37.8243 66.1037 38.067 66.1037 38.3255C66.1037 38.6659 66.0262 38.9666 65.8685 39.2278C65.7702 39.3913 65.6462 39.5232 65.4937 39.6261C65.3877 39.6973 65.3903 39.853 65.4988 39.9216C65.6126 39.9954 65.703 40.0825 65.7677 40.1854C65.8814 40.3674 65.9383 40.6417 65.9383 41.0084V42.6071C65.9383 42.7047 65.8607 42.7838 65.7651 42.7838H64.8526ZM62.3477 37.7742V39.0932C62.3477 39.1908 62.4253 39.27 62.5209 39.27H63.9582C64.3046 39.27 64.5475 39.1908 64.6897 39.0325C64.8319 38.8743 64.9017 38.6764 64.9017 38.4363C64.9017 38.1963 64.8319 37.9905 64.6923 37.8322C64.5527 37.674 64.3226 37.5948 64.0021 37.5948H62.5183C62.4227 37.5948 62.3451 37.6739 62.3451 37.7716L62.3477 37.7742Z" />
<path d="M71.2923 42.6072V37.7849C71.2923 37.6873 71.2147 37.6082 71.1191 37.6082H69.6146C69.519 37.6082 69.4414 37.529 69.4414 37.4314V36.6875C69.4414 36.5899 69.519 36.5107 69.6146 36.5107H74.2676C74.3632 36.5107 74.4408 36.5899 74.4408 36.6875V37.4314C74.4408 37.529 74.3632 37.6082 74.2676 37.6082H72.7528C72.6571 37.6082 72.5796 37.6873 72.5796 37.7849V42.6072C72.5796 42.7049 72.502 42.784 72.4064 42.784H71.4655C71.3698 42.784 71.2923 42.7049 71.2923 42.6072Z" />
<path d="M87.1804 42.7838C87.0848 42.7838 87.0072 42.7047 87.0072 42.6071V41.1693C87.0072 40.8686 86.94 40.6523 86.803 40.523C86.666 40.3938 86.4152 40.3305 86.043 40.3305H84.8461C84.7505 40.3305 84.6729 40.4096 84.6729 40.5072V42.6097C84.6729 42.7073 84.5954 42.7865 84.4998 42.7865H83.595C83.4994 42.7865 83.4218 42.7073 83.4218 42.6097V36.69C83.4218 36.5924 83.4994 36.5132 83.595 36.5132H86.5419C86.8263 36.5132 87.0822 36.5581 87.3148 36.6504C87.5475 36.7427 87.7439 36.8667 87.9119 37.0276C88.0774 37.1886 88.2066 37.3811 88.2971 37.6027C88.3876 37.8243 88.4315 38.067 88.4315 38.3255C88.4315 38.6659 88.354 38.9666 88.1963 39.2278C88.0981 39.3913 87.974 39.5232 87.8215 39.6261C87.7155 39.6973 87.7181 39.853 87.8266 39.9216C87.9404 39.9954 88.0309 40.0825 88.0955 40.1854C88.2092 40.3674 88.2661 40.6417 88.2661 41.0084V42.6071C88.2661 42.7047 88.1885 42.7838 88.0929 42.7838H87.1804ZM84.6755 37.7742V39.0932C84.6755 39.1908 84.7531 39.27 84.8487 39.27H86.286C86.6324 39.27 86.8754 39.1908 87.0175 39.0325C87.1597 38.8743 87.2295 38.6764 87.2295 38.4363C87.2295 38.1963 87.1597 37.9905 87.0201 37.8322C86.8805 37.674 86.6505 37.5948 86.3299 37.5948H84.8461C84.7505 37.5948 84.6729 37.6739 84.6729 37.7716L84.6755 37.7742Z" />
<path d="M91.9531 42.6072V36.6875C91.9531 36.5899 92.0307 36.5107 92.1263 36.5107H93.0673C93.1629 36.5107 93.2405 36.5899 93.2405 36.6875V42.6072C93.2405 42.7049 93.1629 42.784 93.0673 42.784H92.1263C92.0307 42.784 91.9531 42.7049 91.9531 42.6072Z" />
<path d="M100.643 42.702L98.3833 39.0826C98.2903 38.9349 98.0654 39.0008 98.0654 39.1776V42.6097C98.0654 42.7073 97.9878 42.7864 97.8922 42.7864H97.0443C96.9486 42.7864 96.8711 42.7073 96.8711 42.6097V36.6899C96.8711 36.5923 96.9486 36.5132 97.0443 36.5132H98.1352C98.1946 36.5132 98.2515 36.5448 98.2825 36.5976L100.356 40.0191C100.446 40.1695 100.676 40.1036 100.676 39.9268V36.6899C100.676 36.5923 100.754 36.5132 100.849 36.5132H101.708C101.803 36.5132 101.881 36.5923 101.881 36.6899V42.6097C101.881 42.7073 101.803 42.7864 101.708 42.7864H100.79C100.73 42.7864 100.676 42.7548 100.645 42.7047L100.643 42.702Z" />
<path d="M110.092 42.6151C110.084 42.47 109.916 42.3908 109.807 42.4884C109.683 42.6019 109.533 42.6968 109.358 42.776C109.029 42.9237 108.655 42.9976 108.228 42.9976C107.802 42.9976 107.419 42.9053 107.075 42.7179C106.734 42.5333 106.439 42.2827 106.196 41.9714C105.953 41.6601 105.767 41.3013 105.635 40.8951C105.506 40.4888 105.441 40.0694 105.441 39.6341C105.441 39.1751 105.506 38.7424 105.635 38.3362C105.765 37.9299 105.956 37.5764 106.209 37.273C106.462 36.9697 106.778 36.7322 107.153 36.5608C107.527 36.3893 107.967 36.3022 108.466 36.3022C108.83 36.3022 109.172 36.355 109.489 36.4632C109.807 36.5713 110.084 36.7191 110.322 36.9064C110.56 37.0963 110.751 37.3205 110.896 37.5817C111.007 37.7848 111.084 38.0011 111.123 38.2359C111.141 38.3441 111.061 38.4443 110.953 38.4443H109.994C109.919 38.4443 109.849 38.3942 109.828 38.3203C109.802 38.2201 109.761 38.1251 109.704 38.0354C109.624 37.9062 109.523 37.7954 109.399 37.7004C109.247 37.5817 109.063 37.4946 108.846 37.4366C108.753 37.4102 108.657 37.397 108.561 37.3918C107.998 37.3654 107.551 37.5632 107.22 37.98C106.907 38.3731 106.752 38.9456 106.752 39.6948C106.752 39.9533 106.786 40.2118 106.85 40.473C106.915 40.7341 107.016 40.9716 107.155 41.18C107.295 41.391 107.471 41.5625 107.688 41.6944C107.905 41.8263 108.161 41.8922 108.456 41.8922C108.665 41.8922 108.861 41.8553 109.042 41.7788C109.223 41.7023 109.384 41.5994 109.518 41.4675C109.655 41.3356 109.761 41.1826 109.838 41.0085C109.888 40.8977 109.921 40.7816 109.939 40.6603C109.955 40.5521 109.872 40.4572 109.766 40.4572H108.766C108.67 40.4572 108.593 40.378 108.593 40.2804V39.584C108.593 39.4864 108.67 39.4072 108.766 39.4072H110.984C111.079 39.4072 111.157 39.4864 111.157 39.584V42.6045C111.157 42.7021 111.079 42.7813 110.984 42.7813H110.257C110.164 42.7813 110.089 42.7074 110.084 42.6124L110.092 42.6151Z" />
</g>
</svg>
